# xmcd
#
# Track frame offsets:
#	150
#	14086
#	25313
#	37169
#	51949
#	64051
#	79277
#	95962
#	107703
#	124660
#	138146
#	149762
#	163223
#	175665
#	185898
#	197952
#	211296
#	226975
#	243400
#	256422
#	267910
#	278884
#
# Disc length: 3886 seconds
# Revision: 0
# Processed by: cddbd v1.5.2PL0 Copyright (c) Steve Scherf et al.
# Submitted via: dBpowerAMP V12.0
#
DISCID=5b0f2c16
DTITLE=Various Artist - Whitewater - A Copper Creek Anthology
DYEAR=2004
DGENRE=Bluegrass
TTITLE0=The Bluegrass Patriots - Wave Goodbye
TTITLE1=Wolfe Brothers - I'm Ramblin' Away
TTITLE2=Kathy Kallick - You Took Me Away
TTITLE3=The Crooked Jades - Tell Her to Come Back Home
TTITLE4=Jones and Bliss - Girl from Jericho
TTITLE5=Ron Spears and Within Tradition - Ocean of Teardrops
TTITLE6=Chris Brashear and Peter McLaughlin - Sad Parting, Sad Goodbye
TTITLE7=George Shuffler and Laura Boosinger - Lonesome Road Blues
TTITLE8=John Reischman and the Jaybirds - Say Darling Say
TTITLE9=Albert E. Brumley, Jr. - Banjo Boy
TTITLE10=Kazuhiro Inaba - Emotions
TTITLE11=Chris Brashear and Peter McLaughlin - Lost Canyons
TTITLE12=John Reischman and the Jaybirds - Lonesoome Dove
TTITLE13=Ron Spears and Within Tradition - Lord, Lift Me Up
TTITLE14=George Shuffler and Laura Boosinger - Red Rocking Chair
TTITLE15=Kathy Kallick - Just a Song
TTITLE16=The Crooked Jades - Ain't No Grave
TTITLE17=Jones and Bliss - Meet Me by the Moonlight, Alone
TTITLE18=Wolfe Brothers - Diamond Joe
TTITLE19=Albert E. Brumley, Jr. - I'll Fly Away
TTITLE20=The Bluegrass Patriots - Free Me from My Misery
TTITLE21=Kazuhiro Inaba - House of Gold
EXTD=
EXTT0=
EXTT1=
EXTT2=
EXTT3=
EXTT4=
EXTT5=
EXTT6=
EXTT7=
EXTT8=
EXTT9=
EXTT10=
EXTT11=
EXTT12=
EXTT13=
EXTT14=
EXTT15=
EXTT16=
EXTT17=
EXTT18=
EXTT19=
EXTT20=
EXTT21=
PLAYORDER=
